<svg width="200" height="200" viewBox="0 0 200 200" xmlns="http://www.w3.org/2000/svg">
  <defs>
    <linearGradient id="grad1" x1="0%" y1="0%" x2="100%" y2="100%">
      <stop offset="0%" style="stop-color:#4facfe;stop-opacity:1" />
      <stop offset="100%" style="stop-color:#00f2fe;stop-opacity:1" />
    </linearGradient>

    <linearGradient id="grad2" x1="0%" y1="0%" x2="100%" y2="100%">
      <stop offset="0%" style="stop-color:#43e97b;stop-opacity:1" />
      <stop offset="100%" style="stop-color:#38f9d7;stop-opacity:1" />
    </linearGradient>
  </defs>

  <rect x="10" y="10" width="180" height="180" rx="25" fill="#0f172a"/>

  <g transform="translate(40,60)">
    <rect x="0" y="0" width="80" height="50" rx="8" fill="url(#grad1)" opacity="0.9"/>
    <rect x="10" y="-10" width="80" height="50" rx="8" fill="url(#grad1)" opacity="0.7"/>
    <rect x="20" y="-20" width="80" height="50" rx="8" fill="url(#grad1)" opacity="0.5"/>
    <polyline points="0,0 40,25 80,0" fill="none" stroke="#ffffff" stroke-width="2"/>
  </g>

  <g transform="translate(110,80)">
    <circle cx="20" cy="20" r="22" fill="url(#grad2)" />
    <path d="M15 10 L25 20 L15 30" fill="none" stroke="#0f172a" stroke-width="3" stroke-linecap="round" stroke-linejoin="round"/>
  </g>

  <g fill="#00f2fe">
    <circle cx="50" cy="150" r="3"/>
    <circle cx="70" cy="150" r="3"/>
    <circle cx="90" cy="150" r="3"/>
    <circle cx="110" cy="150" r="3"/>
  </g>

  <rect x="45" y="165" width="110" height="6" rx="3" fill="#1e293b"/>
</svg>
